<?xml version="1.0" encoding="UTF-8"?><svg xmlns="http://www.w3.org/2000/svg" viewBox="0 0 64 64"><defs><style>.cls-1{fill:none;}.cls-2{fill:#4dd2ff;}</style></defs><g id="_1"><rect class="cls-1" width="64" height="64"/></g><g id="_2"><path class="cls-2" d="M14.71,42.33c2.62-1.55,2.95-4.2,3.05-7.15V9.42s9.22,0,9.22,0v8.69c2.76-3.77,6.77-6.54,11.41-7.74,5.33-1.38,11.35-.78,16.21,1.9-5.5-6.29-13.58-10.27-22.59-10.27C15.43,2,2,15.43,2,32c0,3.61.64,7.07,1.81,10.27l1.93-2.3c1.88,1.77,3.4,3,6.18,3.03,1.01,0,1.95-.17,2.79-.67ZM41.62,17.87c-2.98.62-5.44,2.43-7.15,4.93-3.08,4.51-3.24,10.48-.16,15.02,1.65,2.43,4.03,4.2,6.88,4.95,5.53,1.46,11.63-1.47,13.09-7.39h-10.3s0-7.67,0-7.67h17.72c-.56-3.87-1.86-7.51-3.75-10.77l-4.5,5.01c-3.04-3.38-7.29-5.03-11.82-4.08ZM42.36,51.12c-6.76-.37-12.64-4.01-16.09-9.36-1.04,3.62-3.26,6.57-7.03,8.32-2.15,1-4.34,1.28-6.73,1.31-1.26.02-2.5-.11-3.7-.35,5.5,6.69,13.85,10.97,23.19,10.97,13.25,0,24.48-8.59,28.45-20.5-3.66,6.31-10.7,10.02-18.09,9.61Z"/></g></svg>